# xmcd
#
# Track frame offsets:
#	150
#	26557
#	42580
#	58717
#	74677
#	87622
#	114635
#	132302
#	145612
#	159097
#	177162
#	192685
#	212607
#	231152
#	243967
#	260157
#	277087
#	299065
#	317485
#
# Disc length: 4403 seconds
#
# Revision: 0
# Processed by: cddbd v1.5.1PL2 Copyright (c) Steve Scherf et al.
# Submitted via: audiograbber 1.83.01
#
DISCID=2f113113
DTITLE=Various Artist - Iowa Blues 3
DYEAR=1996
DGENRE=Blues
TTITLE0=Blue Janey - Holes In My Shoes
TTITLE1=Instigators - Doin' The Same
TTITLE2=Shade Of Blue - Phone Tag Blues
TTITLE3=Pat Hazell - Hot Cakes
TTITLE4=Bryce Janey - If I Could
TTITLE5=Graveyard Blues Band - Mississippi Bound
TTITLE6=David Zollo - New Man Blues
TTITLE7=Blue Band - I Shoulda Said
TTITLE8=BeJae Fleming - Red Cross Woman
TTITLE9=Delta Drifters - Table Top Boogie
TTITLE10=Backbone Blues Band - All Night Woman
TTITLE11=Mississippi Band - Ow Baby!
TTITLE12=Hawkey Herman - Rocket To Chicago
TTITLE13=Suberranean Blues Band - Talkin' 'Bout My Baby
TTITLE14=The Pages - Stranded
TTITLE15=Dave Moore -  Let's Take Our Time and Do It Right
TTITLE16=Neon Blues Band - Good As Good Can Be
TTITLE17=Scarlet Runner - Friday Night
TTITLE18=Dean Sires - Eastbound Train
EXTD=
EXTT0=
EXTT1=
EXTT2=
EXTT3=
EXTT4=
EXTT5=
EXTT6=
EXTT7=
EXTT8=
EXTT9=
EXTT10=
EXTT11=
EXTT12=
EXTT13=
EXTT14=
EXTT15=
EXTT16=
EXTT17=
EXTT18=
PLAYORDER=
